<svg xmlns="http://www.w3.org/2000/svg" width="23.73" height="5.405" viewBox="0 0 23.73 5.405">
  <path id="more" d="M1.9-2.426A2.7,2.7,0,0,1,2.624-4.4a2.628,2.628,0,0,1,1.964-.738A2.628,2.628,0,0,1,6.552-4.4a2.7,2.7,0,0,1,.725,1.978A2.654,2.654,0,0,1,6.552-.461,2.654,2.654,0,0,1,4.588.264,2.654,2.654,0,0,1,2.624-.461,2.654,2.654,0,0,1,1.9-2.426Zm9.176,0A2.7,2.7,0,0,1,11.8-4.4a2.628,2.628,0,0,1,1.964-.738,2.628,2.628,0,0,1,1.964.738,2.7,2.7,0,0,1,.725,1.978,2.654,2.654,0,0,1-.725,1.964,2.654,2.654,0,0,1-1.964.725A2.654,2.654,0,0,1,11.8-.461,2.654,2.654,0,0,1,11.074-2.426Zm9.176,0A2.7,2.7,0,0,1,20.975-4.4a2.628,2.628,0,0,1,1.964-.738A2.628,2.628,0,0,1,24.9-4.4a2.7,2.7,0,0,1,.725,1.978A2.654,2.654,0,0,1,24.9-.461a2.654,2.654,0,0,1-1.964.725,2.654,2.654,0,0,1-1.964-.725A2.654,2.654,0,0,1,20.25-2.426Z" transform="translate(-1.898 5.142)" fill="#fff"/>
</svg>
